<svg id="Layer_3" enable-background="new 0 0 64 64" height="512" viewBox="0 0 64 64" width="512" xmlns="http://www.w3.org/2000/svg"><g fill="#fdd089"><path d="m8 22v-7h6.757c2.717 0 5.322-1.079 7.243-3 1.921 1.921 4.526 3 7.243 3h2.757v7c0 6.627-5.373 12-12 12-6.627 0-12-5.373-12-12z"/><path d="m8 22v-4h-2c-1.105 0-2 .895-2 2v2c0 1.105.895 2 2 2h2.18c-.11-.652-.18-1.317-.18-2z"/><path d="m34 18h-2v4c0 .683-.07 1.348-.18 2h2.18c1.105 0 2-.895 2-2v-2c0-1.105-.895-2-2-2z"/></g><path d="m30 58h-28v-13.172c0-1.811.719-3.547 2-4.828 1.281-1.281 3.017-2 4.828-2h7.172l4 4 4-4h6z" fill="#e3e3e3"/><path d="m30 34h32v26h-32z" fill="#71b38e"/><path d="m34 32h24v24h-24z" fill="#ccc"/><path d="m34 32h21v24h-21z" fill="#e6e6e6"/><path d="m34 52h24v4h-24z" fill="#98775a"/><path d="m34 52h21v4h-21z" fill="#cb9e78"/><path d="m44 56v4c0 1.105.895 2 2 2 1.105 0 2-.895 2-2v-4z" fill="#395a47"/><path d="m62 24c-1.889-.63-3.37-2.111-4-4-.63 1.889-2.111 3.37-4 4 1.889.63 3.37 2.111 4 4 .63-1.889 2.111-3.37 4-4z" fill="#85b6cf"/><path d="m48 6c-1.889-.63-3.37-2.111-4-4-.63 1.889-2.111 3.37-4 4 1.889.63 3.37 2.111 4 4 .63-1.889 2.111-3.37 4-4z" fill="#85b6cf"/><path d="m32 6v-2l-4-2h-11l-2 2-2-2h-4l-2 2v2l-3 3v5l4 4v-3h6.757c2.716 0 5.322-1.079 7.243-3 1.921 1.921 4.526 3 7.243 3h2.757v3l4-4v-4z" fill="#cb9e78"/><path d="m20 34c-1.405 0-2.747-.254-4-.697v4.697l4 4 4-4s0-2.624 0-4.697c-1.253.443-2.595.697-4 .697z" fill="#fdd089"/><path d="m24 37.914v.086l-4 4-4-4v-.086h-7.172l11.086 11.086 11.086-11.086z" fill="#dc6068"/><path d="m20 35c-7.168 0-13-5.832-13-13v-7c0-.552.448-1 1-1h6.757c2.469 0 4.79-.961 6.536-2.707.391-.391 1.023-.391 1.414 0 1.746 1.746 4.067 2.707 6.536 2.707h2.757c.552 0 1 .448 1 1v7c0 7.168-5.832 13-13 13zm-11-19v6c0 6.065 4.935 11 11 11s11-4.935 11-11v-6h-1.757c-2.681 0-5.218-.932-7.243-2.643-2.024 1.711-4.562 2.643-7.243 2.643z"/><path d="m34 25h-2v-2h2c.551 0 1-.449 1-1v-2c0-.551-.449-1-1-1h-2c-.404 0-.769-.244-.924-.617-.155-.374-.069-.804.217-1.09l3.707-3.707v-3.172l-3.707-3.707c-.188-.187-.293-.442-.293-.707v-1.382l-3.236-1.618h-10.35l-1.707 1.707c-.391.391-1.023.391-1.414 0l-1.707-1.707h-3.172l-1.414 1.414v1.586c0 .265-.105.52-.293.707l-2.707 2.707v4.172l3.707 3.707c.286.286.372.716.217 1.09-.155.373-.52.617-.924.617h-2c-.551 0-1 .449-1 1v2c0 .551.449 1 1 1h2v2h-2c-1.654 0-3-1.346-3-3v-2c0-1.522 1.14-2.784 2.611-2.975l-2.318-2.318c-.188-.187-.293-.442-.293-.707v-5c0-.265.105-.52.293-.707l2.707-2.707v-1.586c0-.265.105-.52.293-.707l2-2c.187-.188.442-.293.707-.293h4c.265 0 .52.105.707.293l1.293 1.293 1.293-1.293c.187-.188.442-.293.707-.293h11c.155 0 .309.036.447.105l4 2c.339.17.553.516.553.895v1.586l3.707 3.707c.188.187.293.442.293.707v4c0 .265-.105.52-.293.707l-2.318 2.318c1.471.191 2.611 1.453 2.611 2.975v2c0 1.654-1.346 3-3 3z"/><path d="m30 39h-6c-.552 0-1-.447-1-1v-5h2v4h5z"/><path d="m30 59h-28c-.552 0-1-.447-1-1v-13.172c0-2.092.814-4.058 2.293-5.535 1.479-1.479 3.445-2.293 5.536-2.293h6.171v-4h2v5c0 .553-.448 1-1 1h-7.171c-1.557 0-3.021.606-4.122 1.707s-1.707 2.564-1.707 4.121v12.172h27z"/><path d="m20 43c-.256 0-.512-.098-.707-.293l-4-4 1.414-1.414 3.293 3.293 3.293-3.293 1.414 1.414-4 4c-.195.195-.451.293-.707.293z"/><path d="m19.914 50.086c-.265 0-.52-.105-.707-.293l-11.085-11.086 1.414-1.414 10.378 10.379 9.379-9.379 1.414 1.414-10.086 10.086c-.187.187-.442.293-.707.293z"/><path d="m7 50h2v8h-2z"/><path d="m58 57h-24c-.552 0-1-.447-1-1v-24c0-.552.448-1 1-1h24c.552 0 1 .448 1 1v24c0 .553-.448 1-1 1zm-23-2h22v-22h-22z"/><path d="m34 51h24v2h-24z"/><path d="m45 32h2v24h-2z"/><path d="m46 63c-1.654 0-3-1.346-3-3v-4h2v4c0 .552.449 1 1 1s1-.448 1-1v-4h2v4c0 1.654-1.346 3-3 3z"/><path d="m44 61h-14c-.552 0-1-.447-1-1v-26c0-.553.448-1 1-1h4v2h-3v24h13z"/><path d="m62 61h-14v-2h13v-24h-3v-2h4c.552 0 1 .447 1 1v26c0 .553-.448 1-1 1z"/><path d="m37 47h6v2h-6z"/><path d="m37 43h6v2h-6z"/><path d="m37 39h6v2h-6z"/><path d="m37 35h6v2h-6z"/><path d="m49 43h6v2h-6z"/><path d="m49 39h6v2h-6z"/><path d="m49 35h6v2h-6z"/><path d="m49 47h6v2h-6z"/><path d="m13 18h2v4h-2z"/><path d="m25 18h2v4h-2z"/><path d="m20 31c-2.206 0-4-1.794-4-4h2c0 1.103.897 2 2 2s2-.897 2-2h2c0 2.206-1.794 4-4 4z"/><path d="m58 29c-.431 0-.812-.275-.949-.684-.527-1.582-1.786-2.84-3.367-3.367-.409-.137-.684-.518-.684-.949s.275-.812.684-.949c1.582-.527 2.84-1.786 3.367-3.367.137-.409.518-.684.949-.684s.812.275.949.684c.527 1.582 1.786 2.84 3.367 3.367.409.137.684.518.684.949s-.275.812-.684.949c-1.582.527-2.84 1.786-3.367 3.367-.137.409-.518.684-.949.684zm-1.804-5c.701.492 1.312 1.103 1.804 1.804.492-.701 1.103-1.312 1.804-1.804-.701-.492-1.312-1.103-1.804-1.804-.492.701-1.103 1.312-1.804 1.804z"/><path d="m44 11c-.431 0-.812-.275-.949-.684-.527-1.582-1.786-2.84-3.367-3.367-.409-.137-.684-.518-.684-.949s.275-.812.684-.949c1.582-.527 2.84-1.786 3.367-3.367.137-.409.518-.684.949-.684s.812.275.949.684c.527 1.582 1.786 2.84 3.367 3.367.409.137.684.518.684.949s-.275.812-.684.949c-1.582.527-2.84 1.786-3.367 3.367-.137.409-.518.684-.949.684zm-1.804-5c.701.492 1.312 1.103 1.804 1.804.492-.701 1.103-1.312 1.804-1.804-.701-.492-1.312-1.103-1.804-1.804-.492.701-1.103 1.312-1.804 1.804z"/></svg>